<?xml version="1.0" encoding="UTF-8" standalone="no"?>
<!DOCTYPE svg PUBLIC "-//W3C//DTD SVG 1.1//EN"
 "http://www.w3.org/Graphics/SVG/1.1/DTD/svg11.dtd">
<!-- Generated by graphviz version 2.40.1 (20161225.0304)
 -->
<!-- Title: dependencies Pages: 1 -->
<svg width="1417pt" height="284pt"
 viewBox="0.00 0.00 1417.00 284.00" xmlns="http://www.w3.org/2000/svg" xmlns:xlink="http://www.w3.org/1999/xlink">
<g id="graph0" class="graph" transform="scale(1 1) rotate(0) translate(4 280)">
<title>dependencies</title>
<polygon fill="#ffffff" stroke="transparent" points="-4,4 -4,-280 1413,-280 1413,4 -4,4"/>
<text text-anchor="start" x="683.5091" y="-42.4" font-family="sans-serif" font-weight="bold" font-size="14.00" fill="#000000">Legend</text>
<polygon fill="#ffffb3" stroke="transparent" points="470.5,-10 470.5,-30 490.5,-30 490.5,-10 470.5,-10"/>
<text text-anchor="start" x="494.129" y="-15.4" font-family="sans-serif" font-size="14.00" fill="#000000"> &#160;Declarations</text>
<polygon fill="#8dd3c7" stroke="transparent" points="583.5,-10 583.5,-30 603.5,-30 603.5,-10 583.5,-10"/>
<text text-anchor="start" x="607.2251" y="-15.4" font-family="sans-serif" font-size="14.00" fill="#000000"> &#160;Module</text>
<polygon fill="#80b1d3" stroke="transparent" points="669.5,-10 669.5,-30 689.5,-30 689.5,-10 669.5,-10"/>
<text text-anchor="start" x="693.2812" y="-15.4" font-family="sans-serif" font-size="14.00" fill="#000000"> &#160;Bootstrap</text>
<polygon fill="#fdb462" stroke="transparent" points="766.5,-10 766.5,-30 786.5,-30 786.5,-10 766.5,-10"/>
<text text-anchor="start" x="790.1732" y="-15.4" font-family="sans-serif" font-size="14.00" fill="#000000"> &#160;Providers</text>
<polygon fill="#fb8072" stroke="transparent" points="862.5,-10 862.5,-30 882.5,-30 882.5,-10 862.5,-10"/>
<text text-anchor="start" x="886.2258" y="-15.4" font-family="sans-serif" font-size="14.00" fill="#000000"> &#160;Exports</text>
<g id="clust1" class="cluster">
<title>cluster_AppModule</title>
<polygon fill="none" stroke="#000000" stroke-dasharray="1,5" points="8,-70 8,-268 1401,-268 1401,-70 8,-70"/>
</g>
<g id="clust2" class="cluster">
<title>cluster_AppModule_declarations</title>
<polygon fill="none" stroke="#000000" points="16,-78 16,-130 1393,-130 1393,-78 16,-78"/>
</g>
<g id="clust14" class="cluster">
<title>cluster_AppModule_bootstrap</title>
<polygon fill="none" stroke="#000000" points="592,-208 592,-260 716,-260 716,-208 592,-208"/>
</g>
<!-- AppComponent -->
<g id="node1" class="node">
<title>AppComponent</title>
<polygon fill="#ffffb3" stroke="#000000" points="1384.9399,-122 1279.0601,-122 1279.0601,-86 1384.9399,-86 1384.9399,-122"/>
<text text-anchor="middle" x="1332" y="-99.8" font-family="Times,serif" font-size="14.00" fill="#000000">AppComponent</text>
</g>
<!-- AppModule -->
<g id="node10" class="node">
<title>AppModule</title>
<polygon fill="#8dd3c7" stroke="#000000" points="695.6571,-187 692.6571,-191 671.6571,-191 668.6571,-187 612.3429,-187 612.3429,-151 695.6571,-151 695.6571,-187"/>
<text text-anchor="middle" x="654" y="-164.8" font-family="Times,serif" font-size="14.00" fill="#000000">AppModule</text>
</g>
<!-- AppComponent&#45;&gt;AppModule -->
<g id="edge1" class="edge">
<title>AppComponent&#45;&gt;AppModule</title>
<path fill="none" stroke="#000000" d="M1332,-122.0109C1332,-144.4852 1332,-180 1332,-180 1332,-180 705.9003,-180 705.9003,-180"/>
<polygon fill="#000000" stroke="#000000" points="705.9003,-176.5001 695.9003,-180 705.9002,-183.5001 705.9003,-176.5001"/>
</g>
<!-- AssignedToMeComponent -->
<g id="node2" class="node">
<title>AssignedToMeComponent</title>
<polygon fill="#ffffb3" stroke="#000000" points="1260.6456,-122 1093.3544,-122 1093.3544,-86 1260.6456,-86 1260.6456,-122"/>
<text text-anchor="middle" x="1177" y="-99.8" font-family="Times,serif" font-size="14.00" fill="#000000">AssignedToMeComponent</text>
</g>
<!-- AssignedToMeComponent&#45;&gt;AppModule -->
<g id="edge2" class="edge">
<title>AssignedToMeComponent&#45;&gt;AppModule</title>
<path fill="none" stroke="#000000" d="M1177,-122.1289C1177,-142.5724 1177,-173 1177,-173 1177,-173 705.9152,-173 705.9152,-173"/>
<polygon fill="#000000" stroke="#000000" points="705.9152,-169.5001 695.9152,-173 705.9152,-176.5001 705.9152,-169.5001"/>
</g>
<!-- ClosedIssuesComponent -->
<g id="node3" class="node">
<title>ClosedIssuesComponent</title>
<polygon fill="#ffffb3" stroke="#000000" points="1075.4284,-122 920.5716,-122 920.5716,-86 1075.4284,-86 1075.4284,-122"/>
<text text-anchor="middle" x="998" y="-99.8" font-family="Times,serif" font-size="14.00" fill="#000000">ClosedIssuesComponent</text>
</g>
<!-- ClosedIssuesComponent&#45;&gt;AppModule -->
<g id="edge3" class="edge">
<title>ClosedIssuesComponent&#45;&gt;AppModule</title>
<path fill="none" stroke="#000000" d="M998,-122.2667C998,-140.5552 998,-166 998,-166 998,-166 705.8372,-166 705.8372,-166"/>
<polygon fill="#000000" stroke="#000000" points="705.8373,-162.5001 695.8372,-166 705.8372,-169.5001 705.8373,-162.5001"/>
</g>
<!-- CreatedByMeComponent -->
<g id="node4" class="node">
<title>CreatedByMeComponent</title>
<polygon fill="#ffffb3" stroke="#000000" points="902.8599,-122 743.1401,-122 743.1401,-86 902.8599,-86 902.8599,-122"/>
<text text-anchor="middle" x="823" y="-99.8" font-family="Times,serif" font-size="14.00" fill="#000000">CreatedByMeComponent</text>
</g>
<!-- CreatedByMeComponent&#45;&gt;AppModule -->
<g id="edge4" class="edge">
<title>CreatedByMeComponent&#45;&gt;AppModule</title>
<path fill="none" stroke="#000000" d="M823,-122.0091C823,-138.0494 823,-159 823,-159 823,-159 705.7753,-159 705.7753,-159"/>
<polygon fill="#000000" stroke="#000000" points="705.7753,-155.5001 695.7753,-159 705.7753,-162.5001 705.7753,-155.5001"/>
</g>
<!-- DashboardComponent -->
<g id="node5" class="node">
<title>DashboardComponent</title>
<polygon fill="#ffffb3" stroke="#000000" points="724.9734,-122 583.0266,-122 583.0266,-86 724.9734,-86 724.9734,-122"/>
<text text-anchor="middle" x="654" y="-99.8" font-family="Times,serif" font-size="14.00" fill="#000000">DashboardComponent</text>
</g>
<!-- DashboardComponent&#45;&gt;AppModule -->
<g id="edge5" class="edge">
<title>DashboardComponent&#45;&gt;AppModule</title>
<path fill="none" stroke="#000000" d="M654,-122.1061C654,-122.1061 654,-140.991 654,-140.991"/>
<polygon fill="#000000" stroke="#000000" points="650.5001,-140.9909 654,-150.991 657.5001,-140.991 650.5001,-140.9909"/>
</g>
<!-- IssueComponent -->
<g id="node6" class="node">
<title>IssueComponent</title>
<polygon fill="#ffffb3" stroke="#000000" points="565.0968,-122 454.9032,-122 454.9032,-86 565.0968,-86 565.0968,-122"/>
<text text-anchor="middle" x="510" y="-99.8" font-family="Times,serif" font-size="14.00" fill="#000000">IssueComponent</text>
</g>
<!-- IssueComponent&#45;&gt;AppModule -->
<g id="edge6" class="edge">
<title>IssueComponent&#45;&gt;AppModule</title>
<path fill="none" stroke="#000000" d="M510,-122.0091C510,-138.0494 510,-159 510,-159 510,-159 601.9621,-159 601.9621,-159"/>
<polygon fill="#000000" stroke="#000000" points="601.9622,-162.5001 611.9621,-159 601.9621,-155.5001 601.9622,-162.5001"/>
</g>
<!-- LoginComponent -->
<g id="node7" class="node">
<title>LoginComponent</title>
<polygon fill="#ffffb3" stroke="#000000" points="437.2758,-122 322.7242,-122 322.7242,-86 437.2758,-86 437.2758,-122"/>
<text text-anchor="middle" x="380" y="-99.8" font-family="Times,serif" font-size="14.00" fill="#000000">LoginComponent</text>
</g>
<!-- LoginComponent&#45;&gt;AppModule -->
<g id="edge7" class="edge">
<title>LoginComponent&#45;&gt;AppModule</title>
<path fill="none" stroke="#000000" d="M380,-122.2667C380,-140.5552 380,-166 380,-166 380,-166 602.087,-166 602.087,-166"/>
<polygon fill="#000000" stroke="#000000" points="602.0871,-169.5001 612.087,-166 602.087,-162.5001 602.0871,-169.5001"/>
</g>
<!-- NewIssueComponent -->
<g id="node8" class="node">
<title>NewIssueComponent</title>
<polygon fill="#ffffb3" stroke="#000000" points="304.0254,-122 167.9746,-122 167.9746,-86 304.0254,-86 304.0254,-122"/>
<text text-anchor="middle" x="236" y="-99.8" font-family="Times,serif" font-size="14.00" fill="#000000">NewIssueComponent</text>
</g>
<!-- NewIssueComponent&#45;&gt;AppModule -->
<g id="edge8" class="edge">
<title>NewIssueComponent&#45;&gt;AppModule</title>
<path fill="none" stroke="#000000" d="M236,-122.1289C236,-142.5724 236,-173 236,-173 236,-173 602.0067,-173 602.0067,-173"/>
<polygon fill="#000000" stroke="#000000" points="602.0068,-176.5001 612.0067,-173 602.0067,-169.5001 602.0068,-176.5001"/>
</g>
<!-- OptionsComponent -->
<g id="node9" class="node">
<title>OptionsComponent</title>
<polygon fill="#ffffb3" stroke="#000000" points="149.6652,-122 24.3348,-122 24.3348,-86 149.6652,-86 149.6652,-122"/>
<text text-anchor="middle" x="87" y="-99.8" font-family="Times,serif" font-size="14.00" fill="#000000">OptionsComponent</text>
</g>
<!-- OptionsComponent&#45;&gt;AppModule -->
<g id="edge9" class="edge">
<title>OptionsComponent&#45;&gt;AppModule</title>
<path fill="none" stroke="#000000" d="M87,-122.0109C87,-144.4852 87,-180 87,-180 87,-180 602.3071,-180 602.3071,-180"/>
<polygon fill="#000000" stroke="#000000" points="602.3072,-183.5001 612.3071,-180 602.3071,-176.5001 602.3072,-183.5001"/>
</g>
<!-- AppComponent  -->
<g id="node11" class="node">
<title>AppComponent </title>
<polygon fill="#80b1d3" stroke="#000000" points="708.439,-252 599.561,-252 599.561,-216 708.439,-216 708.439,-252"/>
<text text-anchor="middle" x="654" y="-229.8" font-family="Times,serif" font-size="14.00" fill="#000000">AppComponent </text>
</g>
<!-- AppModule&#45;&gt;AppComponent  -->
<g id="edge10" class="edge">
<title>AppModule&#45;&gt;AppComponent </title>
<path fill="none" stroke="#000000" stroke-dasharray="1,5" d="M654,-187.1061C654,-187.1061 654,-205.991 654,-205.991"/>
<polygon fill="#000000" stroke="#000000" points="650.5001,-205.9909 654,-215.991 657.5001,-205.991 650.5001,-205.9909"/>
</g>
</g>
</svg>
